<?xml version="1.0" encoding="UTF-8"?>
<svg version="1.1" xmlns="http://www.w3.org/2000/svg">
  <defs>
  <!-- Add more: https://iamvector.com/all-icons  -->
  <!-- Brands: https://simpleicons.org/ -->
    <symbol id="info-circle" viewBox="0 0 16 16">
      <g fill="currentColor">
        <path d="M8.00041 0C3.58898 0 0 3.58884 0 7.99998C0 12.4112 3.58898 16 8.00041 16C12.4118 16 16.0008 12.4112 16.0008 7.99998C16.0008 3.58884 12.4118 0 8.00041 0ZM8.00041 14.5454C4.39106 14.5454 1.45462 11.6092 1.45462 8.00002C1.45462 4.39087 4.39106 1.45462 8.00041 1.45462C11.6098 1.45462 14.5462 4.39087 14.5462 7.99998C14.5462 11.6092 11.6098 14.5454 8.00041 14.5454Z"/>
        <path d="M8.00075 6.30237C7.59908 6.30237 7.27344 6.62801 7.27344 7.02968V11.8776C7.27344 12.2793 7.59908 12.6049 8.00075 12.6049C8.40242 12.6049 8.72806 12.2793 8.72806 11.8776V7.02968C8.72806 6.62806 8.40242 6.30237 8.00075 6.30237Z"/>
        <path d="M8.00075 3.3938C7.80922 3.3938 7.62201 3.47138 7.4863 3.60666C7.35102 3.74194 7.27344 3.92958 7.27344 4.12111C7.27344 4.31263 7.35102 4.4998 7.4863 4.63556C7.62158 4.77084 7.80922 4.84842 8.00075 4.84842C8.19227 4.84842 8.37943 4.77084 8.51515 4.63556C8.65043 4.4998 8.72806 4.31263 8.72806 4.12111C8.72806 3.92958 8.65043 3.74194 8.51515 3.60666C8.37943 3.47133 8.19227 3.3938 8.00075 3.3938Z"/>
      </g>
    </symbol>

    <symbol id="chevron-down" viewBox="0 0 10 7">
        <path fill="currentColor" d="M8.41918 0.701335C8.53606 0.589133 8.72091 0.590002 8.83673 0.703299L9.65708 1.5058C9.77836 1.62444 9.77721 1.81997 9.65454 1.93717L5.08615 6.30199C4.9702 6.41278 4.78762 6.41278 4.67166 6.30199L0.10327 1.93717C-0.0193968 1.81996 -0.0205498 1.62444 0.100729 1.5058L0.921084 0.703299C1.0369 0.590002 1.22175 0.589132 1.33863 0.701335L4.67115 3.90055C4.78724 4.012 4.97058 4.012 5.08667 3.90055L8.41918 0.701335Z"/>
    </symbol>

    <symbol id="github" viewBox="0 0 24 24">
      <path fill="currentColor" d="M12 .297c-6.63 0-12 5.373-12 12 0 5.303 3.438 9.8 8.205 11.385.6.113.82-.258.82-.577 0-.285-.01-1.04-.015-2.04-3.338.724-4.042-1.61-4.042-1.61C4.422 18.07 3.633 17.7 3.633 17.7c-1.087-.744.084-.729.084-.729 1.205.084 1.838 1.236 1.838 1.236 1.07 1.835 2.809 1.305 3.495.998.108-.776.417-1.305.76-1.605-2.665-.3-5.466-1.332-5.466-5.93 0-1.31.465-2.38 1.235-3.22-.135-.303-.54-1.523.105-3.176 0 0 1.005-.322 3.3 1.23.96-.267 1.98-.399 3-.405 1.02.006 2.04.138 3 .405 2.28-1.552 3.285-1.23 3.285-1.23.645 1.653.24 2.873.12 3.176.765.84 1.23 1.91 1.23 3.22 0 4.61-2.805 5.625-5.475 5.92.42.36.81 1.096.81 2.22 0 1.606-.015 2.896-.015 3.286 0 .315.21.69.825.57C20.565 22.092 24 17.592 24 12.297c0-6.627-5.373-12-12-12"/>
    </symbol>

    <symbol id="upwork" viewBox="0 0 24 24">
      <path fill="currentColor" d="M18.561 13.158c-1.102 0-2.135-.467-3.074-1.227l.228-1.076.008-.042c.207-1.143.849-3.06 2.839-3.06 1.492 0 2.703 1.212 2.703 2.703-.001 1.489-1.212 2.702-2.704 2.702zm0-8.14c-2.539 0-4.51 1.649-5.31 4.366-1.22-1.834-2.148-4.036-2.687-5.892H7.828v7.112c-.002 1.406-1.141 2.546-2.547 2.548-1.405-.002-2.543-1.143-2.545-2.548V3.492H0v7.112c0 2.914 2.37 5.303 5.281 5.303 2.913 0 5.283-2.389 5.283-5.303v-1.19c.529 1.107 1.182 2.229 1.974 3.221l-1.673 7.873h2.797l1.213-5.71c1.063.679 2.285 1.109 3.686 1.109 3 0 5.439-2.452 5.439-5.45 0-3-2.439-5.439-5.439-5.439z"/>
    </symbol>

    <symbol id="linked-in" viewBox="0 0 24 24">
      <path fill="currentColor" d="M20.447 20.452h-3.554v-5.569c0-1.328-.027-3.037-1.852-3.037-1.853 0-2.136 1.445-2.136 2.939v5.667H9.351V9h3.414v1.561h.046c.477-.9 1.637-1.85 3.37-1.85 3.601 0 4.267 2.37 4.267 5.455v6.286zM5.337 7.433c-1.144 0-2.063-.926-2.063-2.065 0-1.138.92-2.063 2.063-2.063 1.14 0 2.064.925 2.064 2.063 0 1.139-.925 2.065-2.064 2.065zm1.782 13.019H3.555V9h3.564v11.452zM22.225 0H1.771C.792 0 0 .774 0 1.729v20.542C0 23.227.792 24 1.771 24h20.451C23.2 24 24 23.227 24 22.271V1.729C24 .774 23.2 0 22.222 0h.003z"/>
    </symbol>

    <symbol id="stack-overflow" viewBox="0 0 24 24">
      <path fill="currentColor" d="M15.725 0l-1.72 1.277 6.39 8.588 1.716-1.277L15.725 0zm-3.94 3.418l-1.369 1.644 8.225 6.85 1.369-1.644-8.225-6.85zm-3.15 4.465l-.905 1.94 9.702 4.517.904-1.94-9.701-4.517zm-1.85 4.86l-.44 2.093 10.473 2.201.44-2.092-10.473-2.203zM1.89 15.47V24h19.19v-8.53h-2.133v6.397H4.021v-6.396H1.89zm4.265 2.133v2.13h10.66v-2.13H6.154Z"/>
    </symbol>

    <symbol id="moon" viewBox="0 0 24 24">
      <path fill="transparent" stroke="currentColor" stroke-linecap="round" stroke-linejoin="round" stroke-width="2" d="M12 21a9 9 0 0 1-.5-17.986V3c-.354.966-.5 1.911-.5 3a9 9 0 0 0 9 9c.239 0 .254.018.488 0A9.004 9.004 0 0 1 12 21Z"/>
    </symbol>

    <symbol id="sun" viewBox="0 0 24 24">
      <path fill="currentColor" fill-rule="evenodd" d="M13 3a1 1 0 1 0-2 0v2a1 1 0 1 0 2 0V3ZM6.343 4.929A1 1 0 0 0 4.93 6.343l1.414 1.414a1 1 0 0 0 1.414-1.414L6.343 4.929Zm12.728 1.414a1 1 0 0 0-1.414-1.414l-1.414 1.414a1 1 0 0 0 1.414 1.414l1.414-1.414ZM12 7a5 5 0 1 0 0 10 5 5 0 0 0 0-10Zm-9 4a1 1 0 1 0 0 2h2a1 1 0 1 0 0-2H3Zm16 0a1 1 0 1 0 0 2h2a1 1 0 1 0 0-2h-2ZM7.757 17.657a1 1 0 1 0-1.414-1.414l-1.414 1.414a1 1 0 1 0 1.414 1.414l1.414-1.414Zm9.9-1.414a1 1 0 0 0-1.414 1.414l1.414 1.414a1 1 0 0 0 1.414-1.414l-1.414-1.414ZM13 19a1 1 0 1 0-2 0v2a1 1 0 1 0 2 0v-2Z" clip-rule="evenodd"/>
    </symbol>

    <symbol id="envelope" viewBox="0 0 24 24">
      <g fill="currentColor">
        <path d="M1.60175 4.20114C2.14997 3.47258 3.02158 3 4 3H20C20.9784 3 21.85 3.47258 22.3982 4.20113L12 11.7635L1.60175 4.20114Z"></path>
        <path d="M1 6.2365V18C1 19.6523 2.34772 21 4 21H20C21.6523 21 23 19.6523 23 18V6.23649L13.1763 13.381C12.475 13.891 11.525 13.891 10.8237 13.381L1 6.2365Z"></path>
      </g>
    </symbol>

    <symbol id="phone" viewBox="0 0 24 24">
      <g fill="currentColor">
        <path d="M6.62 10.79c1.44 2.83 3.76 5.14 6.59 6.59l2.2-2.2c.27-.27.67-.36 1.02-.24 1.12.37 2.33.57 3.57.57.55 0 1 .45 1 1V20c0 .55-.45 1-1 1-9.39 0-17-7.61-17-17 0-.55.45-1 1-1h3.5c.55 0 1 .45 1 1 0 1.25.2 2.45.57 3.57.11.35.03.74-.25 1.02l-2.2 2.2z"/>
      </g>
    </symbol>

    <symbol id="location" viewBox="0 0 24 24">
      <g fill="currentColor">
        <path d="M12 2C8.13 2 5 5.13 5 9c0 5.25 7 13 7 13s7-7.75 7-13c0-3.87-3.13-7-7-7zm0 9.5c-1.38 0-2.5-1.12-2.5-2.5s1.12-2.5 2.5-2.5 2.5 1.12 2.5 2.5-1.12 2.5-2.5 2.5z"/>
      </g>
    </symbol>

    <symbol id="desk" viewBox="0 0 25 25">
      <g fill="currentColor">
        <path d="M23 14.49V11.5a.5.5 0 0 0-.5-.5h-2.77a3.26 3.26 0 0 1-.59-1h3.36a.5.5 0 0 0 .5-.5v-7a.5.5 0 0 0-.5-.5h-10a.5.5 0 0 0-.5.5v7a.5.5 0 0 0 .5.5h3.36a3.26 3.26 0 0 1-.59 1H8V7.5a.5.5 0 0 0-.5-.5H6v-.5a.5.5 0 0 0-.5-.5h-2a.5.5 0 0 0-.5.5V11h-.5a.5.5 0 0 0-.5.5v12a.5.5 0 0 0 1 0V23h6.5a.5.5 0 0 0 .5-.5V15h12v8.5a.5.5 0 0 0 1 0v-9.01zM22 3v4h-9V3zm-9 5h9v1h-9zm3.89 2h1.22a4.34 4.34 0 0 0 .39 1h-2a4.34 4.34 0 0 0 .39-1zM7 8v3H6V8zM4 7h1v4H4zm5 11H3v-3h6zm-6 4v-3h6v3zm0-8v-2h19v2z"/>
      </g>
    </symbol>

  </defs>
</svg>

